<mxfile host="app.diagrams.net" modified="2024-07-18T14:41:06.223Z" agent="Mozilla/5.0 (Windows NT 10.0; Win64; x64) AppleWebKit/537.36 (KHTML, like Gecko) Chrome/126.0.0.0 Safari/537.36" version="24.7.0" etag="8l8HhJyHqvTRcbKmmECg" type="github">
  <diagram name="Page-1" id="YrSUGJJ-2SyijLkr2ONh">
    <mxGraphModel>
      <root>
        <mxCell id="0" />
        <mxCell id="1" parent="0" />
      </root>
    </mxGraphModel>
  </diagram>
</mxfile>
